<?xml version="1.0" standalone="no"?><!DOCTYPE svg PUBLIC "-//W3C//DTD SVG 1.1//EN" "http://www.w3.org/Graphics/SVG/1.1/DTD/svg11.dtd"><svg t="1717687536366" class="icon" viewBox="0 0 1024 1024" version="1.1" xmlns="http://www.w3.org/2000/svg" p-id="12013" xmlns:xlink="http://www.w3.org/1999/xlink" width="200" height="200"><path d="M511.5904 1.2288A511.3856 511.3856 0 0 0 0 512.6144a511.3856 511.3856 0 1 0 1022.7712 0A511.3856 511.3856 0 0 0 511.5904 1.2288z" fill="#F08198" p-id="12014"></path><path d="M169.3696 336.2816c0 34.6112 0 68.7616 0.6144 103.1168 0.4096 17.9712 1.024 35.7888 2.4576 53.76 1.6384 21.2992 3.8912 43.2128 5.7344 64.8704 0 1.024 0.6144 1.8432 0.6144 2.4576 7.3728-0.4096 14.4896-1.024 21.6576-1.024 30.72-0.8192 60.5696 3.2768 89.1904 14.5408 13.9264 5.7344 27.648 12.032 39.68 21.248 10.0352 7.5776 12.288 16.9984 6.9632 30.72a40.8576 40.8576 0 0 1-15.5136 20.4288c-16.9984 13.312-34.4064 25.1392-54.8352 31.8976-14.336 4.9152-29.0816 8.3968-44.032 10.8544-19.4048 2.8672-39.2192 4.3008-59.0848 6.144-4.096 0.6144-7.9872 0-12.288 0-1.792 0-2.4064-1.024-2.4064-2.8672-0.2048-8.8064-1.024-18.0224-1.6384-26.9824-1.024-11.6736-2.2528-23.1424-3.4816-34.816l-5.7344-48.4864c-2.048-17.152-4.3008-33.9456-6.3488-50.8928-1.8432-16.7936-3.4816-33.3312-5.7344-49.92-2.6624-18.8416-5.3248-37.632-8.192-56.6784-2.8672-22.272-7.168-44.544-12.8512-66.2528-0.4096-1.024 0.6144-2.8672 1.2288-3.4816 19.2-7.3728 38.4-14.9504 57.4464-22.7328 5.9392-3.072 6.5536-3.8912 6.5536 4.096z m412.3648 0c0 34.6112 0 68.7616 0.6144 103.1168 0.4096 17.9712 1.024 35.7888 2.4576 53.76 1.6384 21.2992 3.8912 43.2128 5.7344 64.8704 0 1.024 0.6144 1.8432 0.6144 2.4576 7.3728-0.4096 14.5408-1.024 21.7088-1.024a225.28 225.28 0 0 1 89.1904 14.5408c14.08 5.7344 27.5968 12.032 39.68 21.248 9.984 7.5776 12.288 16.9984 6.7072 30.5152a41.472 41.472 0 0 1-15.5136 20.4288c-16.9984 13.5168-34.56 25.1392-54.784 31.8976-14.336 4.9152-29.0816 8.3968-44.032 10.6496-19.456 2.8672-39.2704 4.3008-59.0848 6.3488-4.096 0.6144-7.9872 0-12.288 0-1.8432 0-2.6624-1.024-2.6624-2.8672a612.1984 612.1984 0 0 0-1.4336-26.9824c-1.024-11.6736-2.2528-23.3472-3.4816-34.816l-5.7344-48.2816c-1.8432-17.152-4.3008-34.1504-6.144-51.0976-1.8432-16.7936-3.4816-33.3312-5.9392-49.7152a7604.736 7604.736 0 0 0-8.192-56.832 486.1952 486.1952 0 0 0-13.056-66.304c-0.2048-1.024 0.8192-2.8672 1.4336-3.2768a1981.44 1981.44 0 0 0 57.4976-22.9376c6.144-2.8672 6.7072-3.6864 6.7072 4.3008z m-111.4624 184.1152c10.24 0 20.48 0.2048 30.72 0.6144 2.4064 0 3.84 1.8432 3.84 4.3008 0.2048 5.3248 0.6144 10.24 0.6144 15.36 0 23.7056-0.4096 47.8208 0 71.5776 0.4096 19.2 1.024 38.0416 1.2288 57.2416 0 1.024 0 2.4576 0.4096 4.5056-10.8544 0-21.8624 0.2048-32.1024 0-1.024 0-2.6624-1.6384-2.6624-2.6624-1.4336-16.9472-2.8672-33.7408-4.5056-50.688l-4.3008-47.104c-1.2288-15.872-2.8672-32.1024-4.3008-48.4352 0-1.024 0-1.8432-0.4096-3.2768 3.8912-0.8192 7.7824-1.4336 11.4688-1.4336z m412.3648 0c10.24 0 20.48 0.2048 30.5152 0.6144 2.6624 0 3.84 1.8432 3.84 4.3008 0.256 5.3248 0.6144 10.24 0.6144 15.36 0 23.7056-0.4096 47.8208 0 71.5776 0.4096 19.2 1.024 38.0416 1.2288 57.2416 0 1.024 0 2.4576 0.4096 4.5056-10.8032 0-21.8624 0.2048-32.1024 0-1.024 0-2.4576-1.6384-2.4576-2.6624-1.4336-16.9472-2.8672-33.7408-4.5056-50.688l-4.2496-47.104c-1.2288-15.872-2.8672-32.1024-4.3008-48.4352 0-1.024 0-1.8432-0.4096-3.2768 3.8912-0.8192 7.7312-1.4336 11.4176-1.4336z m-503.808-1.4336c1.2288 7.7824 2.6624 15.5648 3.4816 23.7568 1.8432 13.312 2.8672 26.5728 4.3008 39.8848 1.4336 11.6224 2.4576 23.0912 3.8912 34.7648 1.2288 12.288 2.8672 24.7296 4.5056 37.376l1.2288 11.264c-11.264 1.4848-22.3232 2.7136-34.1504 4.352-10.0352-50.3296-19.8656-100.4544-29.4912-150.784 8.192-1.024 15.9744-2.4576 23.7568-3.2768 5.7344-0.8192 11.4176-0.8192 16.9472-1.4336 3.072-0.2048 4.9152 1.2288 5.5296 4.096z m412.416 0c1.1776 7.7824 2.4064 15.5648 3.4304 23.7568 1.8432 13.312 2.8672 26.5728 4.3008 39.8848l3.8912 34.7648 4.5056 37.376c0.4096 3.5328 1.024 7.424 1.4336 11.264-11.264 1.4848-22.272 2.7136-34.1504 4.352-10.24-50.3296-19.8656-100.0448-29.44-150.784 8.192-1.024 15.9232-2.4576 23.7056-3.2768 5.7344-0.8192 11.4688-0.8192 16.9984-1.4336 2.8672-0.2048 4.864 1.2288 5.3248 4.096zM425.8304 378.0096l2.8672 44.032c1.2288 19.8144 2.8672 39.6288 4.3008 59.4944 1.024 14.336 1.4336 28.672 2.8672 42.9568l4.3008 46.848c1.4336 11.264 2.4576 23.0912 3.2768 34.3552 1.4336 12.288 2.6624 24.7296 3.4816 37.632l1.024 10.6496c0 1.8432-0.8192 2.2528-2.8672 1.8432-10.0352-1.024-19.8656-1.4336-30.5152-2.4576-9.216-92.4672-16.9472-185.5488-34.304-278.6304l17.152-1.8432 20.224-1.2288c5.7344-0.4096 7.7824 0.8192 8.192 6.3488z m412.3648 0l2.8672 44.032c1.2288 19.8144 2.8672 39.6288 4.3008 59.4944 1.024 14.336 1.6384 28.672 2.8672 42.9568l4.3008 46.848c1.2288 11.264 2.2528 23.0912 3.2768 34.3552 1.2288 12.288 2.6624 24.7296 3.4816 37.632l1.024 10.6496c0.2048 1.8432-0.8192 2.2528-2.8672 1.8432-10.24-1.024-19.8656-1.4336-30.464-2.4576-9.216-92.4672-16.9984-185.5488-34.3552-278.6304l17.152-1.8432 20.2752-1.2288c5.6832-0.4096 7.7312 0.8192 8.192 6.3488z m-366.336 67.072c2.6624 0.256 3.4816 0.6656 3.4816 3.7376-0.4096 7.7312 0 15.9232 0 23.7056v29.44c-5.7344 0.6144-11.0592 1.024-16.384 1.2288-1.6384-18.7904-2.8672-37.8368-4.5056-58.0608h17.408z m412.5696 0c2.6624 0.256 3.4816 0.6656 3.4816 3.7376-0.4096 7.7312 0 15.9232 0 23.7056v29.44a237.568 237.568 0 0 1-16.384 1.2288c-1.5872-18.7904-2.816-37.8368-4.4544-58.0608h17.408z m-384.9728 0.4608c2.8672 0 4.3008 1.024 4.3008 4.5056v53.1456l-21.0432-1.024V445.5424h16.7424z m412.416 0c2.8672 0 4.3008 1.024 4.3008 4.5056v53.1456l-21.0944-1.024V445.5424h16.7936zM339.1488 442.2656c2.6624-0.4096 1.8432 1.8432 2.4576 3.4816l1.8432 19.2c1.024 10.24 2.4576 19.8656 3.2768 30.1056v3.84l-15.7696 2.6624c-3.4816-18.7904-6.7584-37.632-10.24-56.832 6.144-0.6144 12.0832-2.048 18.432-2.4576z m412.3648 0c2.6624-0.4096 1.8432 1.8432 2.4576 3.4816l1.8432 19.2c1.024 10.24 2.4576 19.8656 3.2768 30.1056v3.84l-15.7184 2.6624c-3.4816-18.7904-6.7584-37.632-10.24-56.832 6.144-0.6144 12.0832-2.048 18.432-2.4576z m-384.768-3.2768c1.8432 0 2.8672 1.2288 3.4816 3.4816 1.6384 17.9712 3.2768 35.3792 5.3248 53.76-6.7584 0.8704-13.312 1.024-20.48 1.6384l-7.3216-58.4704c6.3488-0.4096 12.6976-0.4096 18.9952-0.4096z m412.416 0c1.8432 0 2.8672 1.2288 3.2768 3.4816 1.6384 17.9712 3.2768 35.3792 5.3248 53.76-6.7584 0.8704-13.312 1.024-20.48 1.6384l-7.3728-58.4704c6.5536-0.4096 13.1072-0.4096 19.2512-0.4096z" fill="#FFFFFF" p-id="12015"></path><path d="M208.4352 596.0704c2.8672 21.0944 5.9392 42.1376 8.8064 64 17.9712-13.4656 34.9696-26.5728 52.3776-39.6288-2.4576-2.8672-49.92-21.9136-61.184-24.3712z m412.3648 0c2.8672 21.0944 5.7344 42.1376 8.8064 64 18.0224-13.4656 34.9696-26.5728 52.3776-39.6288-2.4576-2.8672-49.92-21.9136-61.184-24.3712z" fill="#F66E98" p-id="12016"></path></svg>